# xmcd
#
# Track frame offsets: 
#        150
#        56173
#        83876
#        109769
#        155989
#        184294
#        234007
#        259014
#        295346
#        318280
#
# Disc length: 4637 seconds
#
# Revision: 0
# Processed by: cddbd v1.4PL0 Copyright (c) Steve Scherf et al.
# Submitted via: ExactAudioCopy v0.90b4
#
DISCID=8a121b0a
DTITLE=Van Morrison - Putting The Boot In !, disc 2
DYEAR=1999
DGENRE=Celtic
TTITLE0=And The Healing Has Begun - Daring Night
TTITLE1=When Will I Ever Learn To Live In God
TTITLE2=Just Like A Woman
TTITLE3=Help Me > Good Morning Little Schoolgirl
TTITLE4=Georgia
TTITLE5=I'm Not Feeling It Any More
TTITLE6=Gloria
TTITLE7=It's A Man's Man's Man's World > When The Clock Strikes > Don'
TTITLE7=t Let Me Breakdown
TTITLE8=New Biography
TTITLE9=Northern Muse ( Solid Ground )
EXTD=
EXTT0=
EXTT1=
EXTT2=
EXTT3=
EXTT4=
EXTT5=
EXTT6=
EXTT7=
EXTT8=
EXTT9=
PLAYORDER=
